<?xml version="1.0" standalone="no"?>
<!DOCTYPE svg PUBLIC "-//W3C//DTD SVG 20010904//EN"
 "http://www.w3.org/TR/2001/REC-SVG-20010904/DTD/svg10.dtd">
<svg version="1.0" xmlns="http://www.w3.org/2000/svg"
 width="320.000000pt" height="320.000000pt" viewBox="0 0 320.000000 320.000000"
 preserveAspectRatio="xMidYMid meet">
<metadata>
Created by potrace 1.11, written by Peter Selinger 2001-2013
</metadata>
<g transform="translate(0.000000,320.000000) scale(0.100000,-0.100000)"
fill="#000000" stroke="none">
<path d="M1000 2800 l0 -100 -100 0 -100 0 0 -300 0 -300 -100 0 -100 0 0
-200 0 -200 -100 0 -100 0 0 -400 0 -400 100 0 100 0 0 -100 0 -100 300 0 300
0 0 -100 0 -100 100 0 100 0 0 -100 0 -100 200 0 200 0 0 100 0 100 100 0 100
0 0 100 0 100 300 0 300 0 0 100 0 100 100 0 100 0 0 400 0 400 -100 0 -100 0
0 200 0 200 -100 0 -100 0 0 300 0 300 -100 0 -100 0 0 100 0 100 -100 0 -100
0 0 -100 0 -100 -100 0 -100 0 0 -100 0 -100 -200 0 -200 0 0 100 0 100 -100
0 -100 0 0 100 0 100 -100 0 -100 0 0 -100z m200 -200 l0 -100 100 0 100 0 0
-100 0 -100 200 0 200 0 0 100 0 100 100 0 100 0 0 100 0 100 100 0 100 0 0
-300 0 -300 100 0 100 0 0 -200 0 -200 100 0 100 0 0 -400 0 -400 -1000 0
-1000 0 0 400 0 400 100 0 100 0 0 200 0 200 100 0 100 0 0 300 0 300 100 0
100 0 0 -100z m600 -2000 l0 -100 -200 0 -200 0 0 100 0 100 200 0 200 0 0
-100z"/>
<path d="M1200 1500 l0 -200 100 0 100 0 0 200 0 200 -100 0 -100 0 0 -200z"/>
<path d="M1800 1500 l0 -200 100 0 100 0 0 200 0 200 -100 0 -100 0 0 -200z"/>
<path d="M0 1000 l0 -100 100 0 100 0 0 100 0 100 -100 0 -100 0 0 -100z"/>
<path d="M3000 1000 l0 -100 100 0 100 0 0 100 0 100 -100 0 -100 0 0 -100z"/>
</g>
</svg>
