<?xml version="1.0" encoding="utf-8"?>
<!-- Generator: Adobe Illustrator 22.1.0, SVG Export Plug-In . SVG Version: 6.00 Build 0)  -->
<svg version="1.1" id="Calque_1" xmlns="http://www.w3.org/2000/svg" xmlns:xlink="http://www.w3.org/1999/xlink" x="0px" y="0px"
	 viewBox="0 0 589.9 860.2" style="enable-background:new 0 0 589.9 860.2;" xml:space="preserve">
<style type="text/css">
	.st0{fill:#F7F7F7;}
</style>
<g>
	<path class="st0" d="M562.9,162.4c-24.8-27.5-58.4-32.7-67.9-33.6c0.8-29.1-26.4-79.2-56.4-103.3c-16.2-13-44.2-21.7-78.9-24.4
		c-33.6-2.7-71,0.3-105.3,8.4c-32.5,7.7-82.2,33.8-132.8,69.9c-50.2,35.8-89.8,73.1-106,99.7C-1,206.5-1.4,236.5,1.2,256.8
		c2.8,22,9.5,37.2,9.8,37.9l0.5,1l1.1,0.3c0.1,0,6.2,2,12.9,12.1c6.3,9.4,14.4,27.9,17.2,62.6c5.4,66.6,37.7,182.5,40,190.5l0,0.3
		l0.2,0.4c3.1,11.7,56.8,211.8,69.5,234.5c22.2,39.5,54.3,60.9,95.3,63.5c2.3,0.1,4.6,0.2,7,0.2c23.4,0,49.7-7.2,76.5-21
		c25.3-13,50.4-31.7,70.8-52.4c38.7-39.5,96.5-171.1,100-189.6c1.2-3.3,2.9-7.1,4.1-8.9l3.2-1.3c-3.1-7.7-4.7-15.5-4.5-22
		c0.6-20.2,21.7-112,45.9-127.4c7-4.5,12.8-5.7,17.4-3.7c7.5,3.3,9.4,14.5,9.5,14.7l1.8,10.7l3.1-10.4c4.9-16.4,4.8-47.9,4.8-87.8
		c0-31.9,0-68,2.4-105.8C592,216,583,184.7,562.9,162.4z M230.2,657.8c44.8,1.2,75.7,15.4,93.7,27.1c16.5,10.8,25.5,21.4,28,24.5
		c-10.7,41.4-41.9,46.3-48.6,46.9c-10.7-13-17-17-64.4-19.5c-40.3-2.2-53.3,7.5-57,11.6c-14.9-5-32.2-37.2-38.5-51
		c0.9-4.1,3.5-11.6,10.9-19C172.7,660.2,205.7,657.2,230.2,657.8z M89.6,444.1c0.6-0.3,1.3-0.6,1.9-0.9c1.8-0.9,3.7-1.6,5.6-2.4
		c3.9-1.5,7.8-2.7,11.9-3.7c8.1-2,16.5-2.9,25-3c8.5,0,17.3,0.9,26.2,2.6c8.9,1.7,17.9,4.3,27.4,7c-6.4-7.5-14.3-13.6-23.1-18.5
		c-8.8-4.9-18.6-8.4-28.8-10c-10.3-1.7-21-1.5-31.3,0.6c-5.2,1.1-10.3,2.6-15.2,4.5c-0.4,0.2-0.8,0.3-1.1,0.5
		c-0.8-9.2-1.6-17.7-2.5-25.9c-2.5-24.8-4.6-46.2-2.8-70.7c4.3-57.7,71.1-93.7,174.2-94.1c0.3,0,0.6,0,0.8,0
		c53.4,0,93.9,16.7,118.6,30.7c27.9,15.9,46.5,34.9,49.8,44.8c3.4,10,4.3,24.6,5.3,41.5c0.9,15.8,2,33.7,5.4,51.8
		c2,10.8,8.8,22.5,16.7,36.1c10.6,18.3,22.6,39,25.7,62.5l0.5,4.7c1.5,19.2-3.3,40.3-19.8,63.4c-38.9,54.5-56.9,90.6-68.8,114.6
		c-4.5,9.1-8.2,16.4-11.7,22.3L357,706c-0.2-20.7-7.2-36.9-20.8-48.4c-34.1-28.7-97.7-17.8-104.8-16.5c-36.5-8.8-63-5.8-78.8,9
		c-9.8,9.2-13.6,21.1-14.8,31.1c-15.9-52-46.6-113.7-50.1-120.6C91.6,510.7,91.3,473.8,89.6,444.1z"/>
	<path class="st0" d="M291.5,424.5l21.4-4.4c14.1-2.8,27.9-5.5,41.6-6.8c6.8-0.7,13.5-1.1,20.2-0.9c0.8,0,1.7,0,2.5,0.1l2.5,0.1
		c1.6,0.1,3.3,0.3,4.9,0.4c1.6,0.2,3.3,0.5,4.9,0.7c0.8,0.1,1.6,0.3,2.4,0.4l2.4,0.5c6.4,1.4,12.7,3.3,18.6,6.6
		c5.9,3.2,11.6,7.4,16.3,13.5c0-2-0.3-3.9-0.8-5.8c-0.5-1.9-1.2-3.8-2-5.7c-1.7-3.7-3.9-7.2-6.6-10.3c-0.6-0.8-1.4-1.5-2.1-2.3
		c-0.7-0.7-1.4-1.5-2.2-2.2c-0.8-0.7-1.6-1.3-2.4-2l-1.2-1c-0.4-0.3-0.8-0.6-1.3-0.9c-3.4-2.5-7-4.5-10.7-6.3l-2.8-1.2
		c-1-0.4-1.9-0.8-2.9-1.1c-1.9-0.6-3.9-1.3-5.9-1.9c-2-0.5-4-1-6-1.4c-2-0.3-4-0.8-6.1-1c-8.1-1-16.1-0.9-24-0.1
		c-15.7,1.6-30.7,6.1-44.6,12.3c-3.5,1.6-6.9,3.2-10.3,5.1c-3.4,1.8-6.6,3.7-9.9,5.8c-3.2,2.1-6.4,4.2-9.4,6.6c-3,2.3-6,4.8-8.7,7.5
		c3.8-0.6,7.5-1.3,11.2-2C284.3,426,287.9,425.2,291.5,424.5z"/>
	<path class="st0" d="M559.3,467.8c-1.2-0.4-2.5-0.4-3.8-0.2c-0.6,0.2-1.2,0.3-1.8,0.6c-0.6,0.3-1.2,0.5-1.7,0.8
		c-0.5,0.3-1.1,0.6-1.5,1l-1.4,1.2c-0.8,0.8-1.8,1.7-2.5,2.6l-1.2,1.4c-0.4,0.5-0.7,1-1,1.4l-1,1.4l-0.9,1.5
		c-2.5,4-4.6,8.1-6.4,12.4c-1,2.1-1.7,4.3-2.6,6.4c-0.8,2.2-1.5,4.3-2.3,6.5c-2.9,8.7-5.2,17.6-7.1,26.5c-1.9,8.9-3.3,18-4.3,27.1
		c3-8.7,5.4-17.4,8-26.1c2.3-7.6,4.5-15.1,6.9-22.6c0.9-1.1,1.9-2.1,2.9-3.1c1.2-1.1,2.6-2.2,4-2.9c1.4-0.7,2.7-0.8,3.6,0.7
		c0.8,1.4,1.1,3.2,1.2,5c0.3-1.8,0.5-3.6,0-5.5l-0.3-0.7c-0.1-0.2-0.3-0.5-0.5-0.7c-0.4-0.4-0.9-0.8-1.4-1c-1.1-0.4-2.3-0.3-3.3-0.1
		c-1.4,0.3-2.7,0.8-3.9,1.4c1-3,2.1-6.1,3.3-9.1c1.6-4.2,3.4-8.3,5.4-12.2l0.8-1.5l0.8-1.4c0.3-0.5,0.6-1,0.8-1.4l0.9-1.4
		c0.6-0.9,1.3-1.7,1.9-2.6l1.1-1.1c0.4-0.4,0.8-0.7,1.2-1c0.4-0.4,0.8-0.6,1.3-0.9c0.4-0.3,0.9-0.4,1.4-0.7c0.9-0.3,1.9-0.4,3-0.3
		c2,0.3,4,1.7,5.4,3.4C563.4,470.6,561.7,468.7,559.3,467.8z"/>
</g>
</svg>
