<?xml version="1.0" encoding="utf-8"?>
<!-- Generator: Adobe Illustrator 19.1.0, SVG Export Plug-In . SVG Version: 6.00 Build 0)  -->
<svg version="1.1" id="Calque_1" xmlns="http://www.w3.org/2000/svg" xmlns:xlink="http://www.w3.org/1999/xlink" x="0px" y="0px"
	 viewBox="1 0 96.4 79.4" style="enable-background:new 1 0 96.4 79.4;" xml:space="preserve">
<style type="text/css">
	.st0{fill:#25346C;}
	.st1{fill:#CF172C;}
	.st2{fill:#FFFFFF;}
	.st3{opacity:0.6;}
</style>
<g>
	<rect x="1" y="0" class="st0" width="96.4" height="79.4"/>
	<g>
		<polygon class="st1" points="77.4,25.9 97.4,16.2 97.4,9.9 64.5,25.9 		"/>
		<polygon class="st1" points="20.8,53.4 1,63.1 1,69.2 33.3,53.4 		"/>
		<polygon class="st1" points="77.6,53.4 97.4,63.1 97.4,56.9 90.1,53.4 		"/>
		<polygon class="st1" points="21,25.9 1,16.2 1,22.5 8.1,25.9 		"/>
	</g>
	<g>
		<polygon class="st2" points="97.4,7.1 63.3,23.5 63.3,0 57.7,0 57.7,26.3 57.7,29.3 57.7,31.4 66,31.4 85.2,31.4 97.4,31.4 
			97.4,25.9 96.5,25.9 97.4,25.5 97.4,16.2 77.4,25.9 64.5,25.9 97.4,9.9 		"/>
		<polygon class="st2" points="35,23.5 1,7.1 1,16.2 21,25.9 8.1,25.9 1,22.5 1,25.5 1.8,25.9 1,25.9 1,31.4 13.2,31.4 19.5,31.4 
			32.3,31.4 40.7,31.4 40.7,26.3 40.7,0 35,0 		"/>
		<polygon class="st2" points="13.2,47.9 1,47.9 1,53.4 1.8,53.4 1,53.8 1,63.1 20.8,53.4 33.3,53.4 1,69.2 1,72.3 35,55.8 35,79.4 
			40.7,79.4 40.7,53.1 40.7,49.8 40.7,47.9 32.1,47.9 		"/>
		<polygon class="st2" points="78.8,47.9 66.3,47.9 57.7,47.9 57.7,53.1 57.7,79.4 63.3,79.4 63.3,55.8 97.4,72.3 97.4,63.1 
			77.6,53.4 90.1,53.4 97.4,56.9 97.4,53.8 96.5,53.4 97.4,53.4 97.4,47.9 85.2,47.9 		"/>
	</g>
	<polygon class="st1" points="85.2,31.4 66,31.4 57.7,31.4 57.7,29.3 57.7,26.3 57.7,0 40.7,0 40.7,26.3 40.7,31.4 32.3,31.4 
		19.5,31.4 13.2,31.4 1,31.4 1,47.9 13.2,47.9 32.1,47.9 40.7,47.9 40.7,49.8 40.7,53.1 40.7,79.4 57.7,79.4 57.7,53.1 57.7,47.9 
		66.3,47.9 78.8,47.9 85.2,47.9 97.4,47.9 97.4,31.4 	"/>
</g>
<rect x="1" y="0" class="st3" width="96.4" height="79.4"/>
</svg>
