<?xml version="1.0" encoding="utf-8"?>
<!-- Generator: Adobe Illustrator 17.0.2, SVG Export Plug-In . SVG Version: 6.00 Build 0)  -->
<!DOCTYPE svg PUBLIC "-//W3C//DTD SVG 1.1//EN" "http://www.w3.org/Graphics/SVG/1.1/DTD/svg11.dtd">
<svg version="1.1" id="Calque_1" xmlns="http://www.w3.org/2000/svg" xmlns:xlink="http://www.w3.org/1999/xlink" x="0px" y="0px"
	 width="123.834px" height="130.499px" viewBox="0 0 123.834 130.499" enable-background="new 0 0 123.834 130.499"
	 xml:space="preserve">
<path fill="#F0EFEF" d="M120.34,94.14c-8.643,5.401-18.842,8.541-29.796,8.541c-31.261,0-56.621-25.341-56.621-56.606
	c0-16.896,7.412-32.031,19.151-42.39c0.343-0.388,0.53-0.898,0.53-1.447c0-1.211-0.564-2.534-2.414-2.179
	C21.984,6.896,0,33.099,0,64.398c0,36.514,29.617,66.101,66.111,66.101c24.522,0,45.867-13.387,57.262-33.232
	c0.241-0.495,0.461-0.842,0.461-1.351c0-1.206-0.976-2.19-2.194-2.19c-0.482,0-0.921,0.158-1.285,0.423"/>
</svg>
