<?xml version="1.0" encoding="utf-8"?>
<!-- Generator: Adobe Illustrator 17.0.2, SVG Export Plug-In . SVG Version: 6.00 Build 0)  -->
<!DOCTYPE svg PUBLIC "-//W3C//DTD SVG 1.1//EN" "http://www.w3.org/Graphics/SVG/1.1/DTD/svg11.dtd">
<svg version="1.1" id="Calque_1" xmlns="http://www.w3.org/2000/svg" xmlns:xlink="http://www.w3.org/1999/xlink" x="0px" y="0px"
	 width="275.052px" height="165.555px" viewBox="0 0 275.052 165.555" enable-background="new 0 0 275.052 165.555"
	 xml:space="preserve">
<g id="Your_Icon">
	<path fill="#CCCCCC" d="M246.755,77.176c-0.051,0-0.105,0.01-0.163,0.01c0.034-0.537,0.163-1.05,0.163-1.6
		c0-17.303-14.026-31.324-31.327-31.324c-8.312,0-15.823,3.292-21.429,8.578c0.007-0.294,0.046-0.584,0.046-0.878
		C194.045,23.27,170.78,0,142.076,0c-28.699,0-51.968,23.27-51.968,51.961c0,1.228,0.097,2.434,0.182,3.64
		c-5.273-2.473-11.138-3.89-17.342-3.89c-22.657-0.002-41.023,19.64-41.023,42.294s18.366,42.28,41.023,42.28h173.806
		c15.626,0,28.298-13.929,28.298-29.552C275.052,91.104,262.38,77.176,246.755,77.176z"/>
</g>
<g id="layer1" transform="translate(0,-952.36218)">
	<path id="path15990" fill="#EFEFEF" d="M155.055,1018.155c-17.257,0-31.777,11.689-36.09,27.582
		c-4.265-1.692-8.925-2.618-13.791-2.618c-20.655,0-37.399,16.744-37.399,37.399c0,20.655,16.744,37.399,37.399,37.399h87.28
		c13.77,0,24.917-11.193,24.917-24.964s-11.146-24.917-24.917-24.917c-0.736,0-1.478,0.078-2.198,0.141
		c1.414-3.943,2.198-8.192,2.198-12.623C192.454,1034.901,175.708,1018.155,155.055,1018.155L155.055,1018.155z"/>
</g>
<path fill="#FFFFFF" d="M65.259,71.795c-14.235,0-26.456,8.627-31.719,20.938l0.001,0.005c-2.718-1.023-5.662-1.587-8.738-1.587
	C11.105,91.151,0,102.255,0,115.953c0,13.699,11.105,24.804,24.803,24.804h40.456c19.045,0,34.481-15.438,34.481-34.481
	C99.741,87.232,84.304,71.795,65.259,71.795z"/>
</svg>
