<?xml version="1.0" encoding="utf-8"?>
<!-- Generator: Adobe Illustrator 17.0.2, SVG Export Plug-In . SVG Version: 6.00 Build 0)  -->
<!DOCTYPE svg PUBLIC "-//W3C//DTD SVG 1.1//EN" "http://www.w3.org/Graphics/SVG/1.1/DTD/svg11.dtd">
<svg version="1.1" id="Calque_1" xmlns="http://www.w3.org/2000/svg" xmlns:xlink="http://www.w3.org/1999/xlink" x="0px" y="0px"
	 width="123.084px" height="123.084px" viewBox="0 0 123.084 123.084" enable-background="new 0 0 123.084 123.084"
	 xml:space="preserve">
<path fill="#FFF083" d="M117.955,56.413h-10.253c-2.833,0-5.13,2.298-5.13,5.129c0,2.83,2.297,5.126,5.13,5.126h10.253
	c2.838,0,5.129-2.297,5.129-5.126C123.084,58.711,120.787,56.413,117.955,56.413z"/>
<path fill="#FFF083" d="M97.812,32.532l7.253-7.253c1.995-2.003,1.995-5.25,0-7.252c-2.004-2.003-5.258-2.003-7.253,0l-7.255,7.252
	c-2.003,2.004-2.003,5.251,0,7.253C92.555,34.534,95.808,34.534,97.812,32.532z"/>
<path fill="#FFF083" d="M61.544,30.77c-16.998,0-30.775,13.777-30.775,30.772c0,16.993,13.779,30.77,30.775,30.77
	s30.77-13.777,30.77-30.77C92.314,44.546,78.54,30.77,61.544,30.77z"/>
<path fill="#FFF083" d="M61.544,20.514c2.827,0,5.129-2.298,5.129-5.129V5.129C66.673,2.298,64.378,0,61.544,0
	c-2.833,0-5.129,2.298-5.129,5.129v10.257C56.415,18.216,58.711,20.514,61.544,20.514z"/>
<path fill="#FFF083" d="M25.279,32.532c2.004,2.001,5.251,2.001,7.253,0c2.001-2.003,2.001-5.249,0-7.253l-7.253-7.252
	c-2.003-2.003-5.25-2.003-7.252,0s-2.003,5.251,0,7.252L25.279,32.532z"/>
<path fill="#FFF083" d="M20.514,61.542c0-2.831-2.295-5.129-5.129-5.129H5.126C2.298,56.413,0,58.711,0,61.542
	c0,2.83,2.295,5.126,5.126,5.126h10.259C18.216,66.668,20.514,64.372,20.514,61.542z"/>
<path fill="#FFF083" d="M25.279,90.553l-7.252,7.253c-2.003,2.001-2.003,5.251,0,7.251c2.003,2.004,5.251,2.004,7.252,0l7.253-7.251
	c2.001-2.004,2.001-5.252,0-7.253C30.53,88.551,27.283,88.551,25.279,90.553z"/>
<path fill="#FFF083" d="M61.544,102.569c-2.833,0-5.129,2.294-5.129,5.126v10.259c0,2.832,2.295,5.129,5.129,5.129
	c2.833,0,5.129-2.297,5.129-5.129v-10.259C66.673,104.864,64.378,102.569,61.544,102.569z"/>
<path fill="#FFF083" d="M97.812,90.553c-2.01-2.004-5.258-2.004-7.255,0c-2.003,2.001-2.003,5.25,0,7.253l7.255,7.251
	c1.996,2.004,5.25,2.004,7.253,0c1.995-2,1.995-5.25,0-7.251L97.812,90.553z"/>
</svg>
