<?xml version="1.0" encoding="utf-8"?>
<!-- Generator: Adobe Illustrator 18.1.1, SVG Export Plug-In . SVG Version: 6.00 Build 0)  -->
<svg version="1.1" id="Calque_1" xmlns="http://www.w3.org/2000/svg" xmlns:xlink="http://www.w3.org/1999/xlink" x="0px" y="0px"
	 viewBox="-261 168.4 275.1 165.6" enable-background="new -261 168.4 275.1 165.6" xml:space="preserve">
<g id="Your_Icon" opacity="0.8">
	<path fill="#CCCCCC" d="M-14.2,245.6c-0.1,0-0.1,0-0.2,0c0-0.5,0.2-1.1,0.2-1.6c0-17.3-14-31.3-31.3-31.3c-8.3,0-15.8,3.3-21.4,8.6
		c0-0.3,0-0.6,0-0.9c0-28.7-23.3-52-52-52c-28.7,0-52,23.3-52,52c0,1.2,0.1,2.4,0.2,3.6c-5.3-2.5-11.1-3.9-17.3-3.9
		c-22.7,0-41,19.6-41,42.3s18.4,42.3,41,42.3h173.8c15.6,0,28.3-13.9,28.3-29.6C14.1,259.5,1.4,245.6-14.2,245.6z"/>
</g>
<g id="layer1" transform="translate(0,-952.36218)" opacity="0.8">
	<path id="path15990" fill="#EFEFEF" d="M-105.9,1186.6c-17.3,0-31.8,11.7-36.1,27.6c-4.3-1.7-8.9-2.6-13.8-2.6
		c-20.7,0-37.4,16.7-37.4,37.4s16.7,37.4,37.4,37.4h87.3c13.8,0,24.9-11.2,24.9-25s-11.1-24.9-24.9-24.9c-0.7,0-1.5,0.1-2.2,0.1
		c1.4-3.9,2.2-8.2,2.2-12.6C-68.5,1203.3-85.3,1186.6-105.9,1186.6L-105.9,1186.6z"/>
</g>
<path opacity="0.8" fill="#FFFFFF" d="M-195.7,240.2c-14.2,0-26.5,8.6-31.7,20.9l0,0c-2.7-1-5.7-1.6-8.7-1.6
	c-13.7,0-24.8,11.1-24.8,24.8c0,13.7,11.1,24.8,24.8,24.8h40.5c19,0,34.5-15.4,34.5-34.5C-161.3,255.7-176.7,240.2-195.7,240.2z"/>
</svg>
