<?xml version="1.0" encoding="utf-8"?>
<!-- Generator: Adobe Illustrator 18.1.1, SVG Export Plug-In . SVG Version: 6.00 Build 0)  -->
<svg version="1.1" id="Calque_1" xmlns="http://www.w3.org/2000/svg" xmlns:xlink="http://www.w3.org/1999/xlink" x="0px" y="0px"
	 viewBox="0 0 189.9 26.1" enable-background="new 0 0 189.9 26.1" xml:space="preserve">
<g>
	<path fill="#FFFFFF" d="M7.2,0v6.7H3.1v2.7H0V0H7.2z M3.1,4.4h1V2.2h-1V4.4z"/>
	<path fill="#FFFFFF" d="M15.2,0v9.4h-3.1V6.9h-1v2.5H8V0H15.2z M11.1,4.6h1V2.2h-1V4.6z"/>
	<path fill="#FFFFFF" d="M20.5,6.9V6h-4.4V0h7.4v2.5h-4.4v1h4.4v6h-7.4V6.9H20.5z"/>
	<path fill="#FFFFFF" d="M28.8,6.9V6h-4.4V0h7.4v2.5h-4.4v1h4.4v6h-7.4V6.9H28.8z"/>
	<path fill="#FFFFFF" d="M39.9,0v2.5h-4v1h4V6h-4v1h4v2.5h-7.1V0H39.9z"/>
	<path fill="#FFFFFF" d="M41.7,5.2V4.3h1V3.4h2.3v-1h-4.4V0h7.4v4.2h-1v0.9h-1V6h-2.3v1h4.4v2.5h-7.4V5.2H41.7z"/>
	<path fill="#FFFFFF" d="M59.5,6.9V6h-4.4V0h7.4v2.5h-4.4v1h4.4v6h-7.4V6.9H59.5z"/>
	<path fill="#FFFFFF" d="M63.4,8.5V0.2h3v6.9H68V0.2h3v8.3h-1.2v1.2h-5.3V8.5H63.4z"/>
	<path fill="#FFFFFF" d="M79.1,0v5.4h-0.8v0.4h0.8v3.6H76V6h-1v3.4h-3.1V0H79.1z M75,3.4h1V2.5h-1V3.4z"/>
	<path fill="#FFFFFF" d="M86.1,8.5V0.2h3v6.9h1.6V0.2h3v8.3h-1.2v1.2h-5.3V8.5H86.1z"/>
	<path fill="#FFFFFF" d="M97.7,0v1.2h1.1v1.1h1.2v1.2h0.4V0h2.9v9.4h-2.9V8.3h-1.2V7.2H98V6h-0.4v3.4h-3V0H97.7z"/>
	<path fill="#FFFFFF" d="M110.3,8.3V1.2h1.1V0h6.5v1.2h1.1v7.1h-1.1v1.2h-6.5V8.3H110.3z M113.3,7h2.7V2.5h-2.7V7z"/>
	<path fill="#FFFFFF" d="M127.1,0v5.4h-0.8v0.4h0.8v3.6H124V6h-1v3.4h-3.1V0H127.1z M123,3.4h1V2.5h-1V3.4z"/>
	<path fill="#FFFFFF" d="M134.7,0v0.9h0.9v7.7h-0.9v0.9h-6.6V0H134.7z M131.2,6.9h1.3V2.5h-1.3V6.9z"/>
	<path fill="#FFFFFF" d="M139.5,0v9.4h-3V0H139.5z"/>
	<path fill="#FFFFFF" d="M143.5,0v1.2h1.1v1.1h1.2v1.2h0.4V0h2.9v9.4h-2.9V8.3h-1.2V7.2h-1.2V6h-0.4v3.4h-3V0H143.5z"/>
	<path fill="#FFFFFF" d="M157.3,0v9.4h-3.1V6.9h-1v2.5h-3.1V0H157.3z M153.3,4.6h1V2.2h-1V4.6z"/>
	<path fill="#FFFFFF" d="M158.2,2.5V0h7.2v2.5h-2v6.9h-3.1V2.5H158.2z"/>
	<path fill="#FFFFFF" d="M173.3,0v2.5h-4v1h4V6h-4v1h4v2.5h-7.1V0H173.3z"/>
	<path fill="#FFFFFF" d="M174.2,8.5V0.2h3v6.9h1.6V0.2h3v8.3h-1.2v1.2h-5.3V8.5H174.2z"/>
	<path fill="#FFFFFF" d="M189.9,0v5.4h-0.8v0.4h0.8v3.6h-3.1V6h-1v3.4h-3.1V0H189.9z M185.9,3.4h1V2.5h-1V3.4z"/>
	<g>
		<path fill="#FFFFFF" d="M8.8,14.4v8.2h-5v3.3H0V14.4H8.8z M3.8,19.8H5v-2.7H3.8V19.8z"/>
		<path fill="#FFFFFF" d="M9.8,24.5v-8.7h1.3v-1.4H19v1.4h1.4v8.7H19v1.4h-7.9v-1.4H9.8z M13.4,22.9h3.3v-5.4h-3.3V22.9z"/>
		<path fill="#FFFFFF" d="M21.5,24.7V14.7h3.7v8.4h2v-8.4h3.7v10.1h-1.4v1.4h-6.5v-1.4H21.5z"/>
		<path fill="#FFFFFF" d="M40.6,14.4V21h-1v0.5h1v4.4h-3.7v-4.2h-1.3v4.2h-3.7V14.4H40.6z M35.7,18.6h1.2v-1.1h-1.2V18.6z"/>
		<path fill="#FFFFFF" d="M53.8,22.8v-8.4h3.7v11.5h-8.6v-3H53.8z"/>
		<path fill="#FFFFFF" d="M58.6,24.5v-8.7h1.3v-1.4h7.9v1.4h1.4v8.7h-1.4v1.4h-7.9v-1.4H58.6z M62.2,22.9h3.3v-5.4h-3.3V22.9z"/>
		<path fill="#FFFFFF" d="M70.3,24.7V14.7H74v8.4h2v-8.4h3.7v10.1h-1.4v1.4h-6.5v-1.4H70.3z"/>
		<path fill="#FFFFFF" d="M89.4,14.4v3h-4.9v1.2h4.9v3.1h-4.9v1.2h4.9v3h-8.7V14.4H89.4z"/>
		<path fill="#FFFFFF" d="M99.2,14.4V21h-1v0.5h1v4.4h-3.7v-4.2h-1.3v4.2h-3.7V14.4H99.2z M94.2,18.6h1.2v-1.1h-1.2V18.6z"/>
		<path fill="#FFFFFF" d="M116.4,14.4v11.5h-3.7v-3.1h-1.3v3.1h-3.7V14.4H116.4z M111.5,20h1.2v-2.9h-1.2V20z"/>
		<path fill="#FFFFFF" d="M118.4,24.1V22h-0.9v-7.6h3.7v8.4h1.6v-8.4h3.7V22h-0.9v2.1h-1.3v1.8h-4.7v-1.8H118.4z"/>
		<path fill="#FFFFFF" d="M136.2,14.4v3h-4.9v1.2h4.9v3.1h-4.9v1.2h4.9v3h-8.7V14.4H136.2z"/>
		<path fill="#FFFFFF" d="M137.3,24.5v-8.7h1.4v-1.4h7.9v3H141v5.4h5.6v3h-7.9v-1.4H137.3z"/>
		<path fill="#FFFFFF" d="M158.6,14.4v8.4h4.9v3h-8.6V14.4H158.6z"/>
		<path fill="#FFFFFF" d="M168,14.4v11.5h-3.6V14.4H168z"/>
		<path fill="#FFFFFF" d="M172.9,14.4v1.4h1.4v1.3h1.4v1.4h0.5v-4.2h3.6v11.5h-3.6v-1.4h-1.4v-1.3h-1.4v-1.4h-0.5v4.2h-3.7V14.4
			H172.9z"/>
		<path fill="#FFFFFF" d="M184.7,14.4v3h0.5v-1.6h1.1v-1.4h3.7v4h-1.2v1.1h-1.1v1.3h1.1v1.1h1.2v4h-3.7v-1.4h-1.1v-1.6h-0.5v3H181
			V14.4H184.7z"/>
	</g>
</g>
</svg>
