<?xml version="1.0" encoding="utf-8"?>
<!-- Generator: Adobe Illustrator 18.1.1, SVG Export Plug-In . SVG Version: 6.00 Build 0)  -->
<svg version="1.1" id="Calque_1" xmlns="http://www.w3.org/2000/svg" xmlns:xlink="http://www.w3.org/1999/xlink" x="0px" y="0px"
	 viewBox="0 0 143.9 25.1" enable-background="new 0 0 143.9 25.1" xml:space="preserve">
<path fill="#FFFFFF" d="M4.4,6.9V6H0.1V0h7.4v2.5H3.1v1h4.4v6H0.1V6.9H4.4z"/>
<path fill="#FFFFFF" d="M11.4,0v4h0.4V3h1.8v1h0.5V0h2.9v9.4h-2.9V8.3H13V7.2h-0.4v1.1h-1.2v1.2h-3V0H11.4z"/>
<path fill="#FFFFFF" d="M21,0v9.4h-3V0H21z"/>
<path fill="#FFFFFF" d="M21.9,2.5V0h7.2v2.5h-2v6.9H24V2.5H21.9z"/>
<path fill="#FFFFFF" d="M29.9,8.3V1.2h1.2V0h6.5v2.5H33v4.4h4.6v2.5h-6.5V8.3H29.9z"/>
<path fill="#FFFFFF" d="M41.4,0v3.4H43V0h3v9.4h-3V6h-1.6v3.4h-3V0H41.4z"/>
<path fill="#FFFFFF" d="M52.9,2.5V0h7.2v2.5h-2v6.9h-3.1V2.5H52.9z"/>
<path fill="#FFFFFF" d="M60.9,8.3V1.2H62V0h6.5v1.2h1.1v7.1h-1.1v1.2H62V8.3H60.9z M63.8,7h2.7V2.5h-2.7V7z"/>
<path fill="#FFFFFF" d="M76.5,8.3V1.2h1.2V0h6.5v2.5h-4.6v4.4h4.6v2.5h-6.5V8.3H76.5z"/>
<path fill="#FFFFFF" d="M84.9,8.3V1.2H86V0h6.5v1.2h1.1v7.1h-1.1v1.2H86V8.3H84.9z M87.9,7h2.7V2.5h-2.7V7z"/>
<path fill="#FFFFFF" d="M97.6,0v1.2h1.2v1.1h0.4V1.2h1.2V0h2.9v9.4h-2.9v-4h-0.5v1H98v-1h-0.4v4h-3V0H97.6z"/>
<path fill="#FFFFFF" d="M111.5,0v6.7h-4.1v2.7h-3.1V0H111.5z M107.4,4.4h1V2.2h-1V4.4z"/>
<path fill="#FFFFFF" d="M112.3,8.5V0.2h3v6.9h1.6V0.2h3v8.3h-1.2v1.2h-5.3V8.5H112.3z"/>
<path fill="#FFFFFF" d="M120.7,2.5V0h7.2v2.5h-2v6.9h-3.1V2.5H120.7z"/>
<path fill="#FFFFFF" d="M135.8,0v2.5h-4v1h4V6h-4v1h4v2.5h-7.1V0H135.8z"/>
<path fill="#FFFFFF" d="M143.9,0v5.4h-0.8v0.4h0.8v3.6h-3.1V6h-1v3.4h-3.1V0H143.9z M139.8,3.4h1V2.5h-1V3.4z"/>
<g>
	<path fill="#FFFFFF" d="M0,17.2v-2.8h8.1v2.8H5.8V25H2.3v-7.8H0z"/>
	<path fill="#FFFFFF" d="M9,23.7v-8h1.2v-1.3h7.3v1.3h1.3v8h-1.3V25h-7.3v-1.3H9z M12.3,22.2h3.1v-5h-3.1V22.2z"/>
	<path fill="#FFFFFF" d="M34.6,14.4v7.5H30v3h-3.5V14.4H34.6z M30,19.4h1.1v-2.5H30V19.4z"/>
	<path fill="#FFFFFF" d="M38.9,14.4v7.8h4.5V25h-7.9V14.4H38.9z"/>
	<path fill="#FFFFFF" d="M52.4,14.4V25h-3.5v-2.8h-1.2V25h-3.5V14.4H52.4z M47.8,19.6h1.1v-2.7h-1.1V19.6z"/>
	<path fill="#FFFFFF" d="M55.6,21.2v-1h-1v-1h-1.2v-4.7h3.5V17h1v1h1.1v-1h1v-2.5h3.5v4.7h-1.2v1h-1v1h-1v3.9h-3.6v-3.9H55.6z"/>
	<path fill="#FFFFFF" d="M74.4,14.4v4.5h0.5v-1.2h2.1v1.2h0.6v-4.5h3.3V25h-3.3v-1.3h-1.3v-1.2h-0.5v1.2h-1.3V25H71V14.4H74.4z"/>
	<path fill="#FFFFFF" d="M85.2,14.4V25h-3.3V14.4H85.2z"/>
	<path fill="#FFFFFF" d="M86.2,17.2v-2.8h8.1v2.8H92V25h-3.5v-7.8H86.2z"/>
	<path fill="#FFFFFF" d="M98.6,14.4v3.8h1.8v-3.8h3.4V25h-3.4v-3.8h-1.8V25h-3.4V14.4H98.6z"/>
	<path fill="#FFFFFF" d="M115,14.4v7.8h4.5V25h-7.9V14.4H115z"/>
	<path fill="#FFFFFF" d="M123.7,14.4V25h-3.3V14.4H123.7z"/>
	<path fill="#FFFFFF" d="M128.2,14.4v1.3h1.3v1.2h1.3v1.3h0.5v-3.8h3.3V25h-3.3v-1.3H130v-1.2h-1.3v-1.3h-0.5V25h-3.4V14.4H128.2z"
		/>
	<path fill="#FFFFFF" d="M139,14.4v2.8h0.5v-1.5h1v-1.3h3.4v3.7h-1.1v1h-1v1.2h1v1h1.1V25h-3.4v-1.3h-1v-1.5H139V25h-3.4V14.4H139z"
		/>
</g>
</svg>
