<?xml version="1.0" encoding="utf-8"?>
<!-- Generator: Adobe Illustrator 17.0.2, SVG Export Plug-In . SVG Version: 6.00 Build 0)  -->
<!DOCTYPE svg PUBLIC "-//W3C//DTD SVG 1.1//EN" "http://www.w3.org/Graphics/SVG/1.1/DTD/svg11.dtd">
<svg version="1.1" id="Calque_1" xmlns="http://www.w3.org/2000/svg" xmlns:xlink="http://www.w3.org/1999/xlink" x="0px" y="0px"
	 width="240px" height="184px" viewBox="0 0 240 184" enable-background="new 0 0 240 184" xml:space="preserve">
<g>
	<path fill="#F8F8F8" d="M184.167,48.979L181.288,9.81c0.27-1.897-1.41-0.974-1.41-0.974l-3.741,5.29l-10.678,12.246l-27.092,29.963
		l0,0c-8.171-2.113-13.518-2.153-13.518-2.153c-3.847-0.211-7.538-0.172-11.077,0.064l-0.003-0.005L96.765,28.675L74.887-0.5
		c-1.074-1.159-1.541,0.059-1.541,0.059C71.83,0.304,71.508,9.75,71.508,9.75c-1.021,4.671-6.184,26.482-6.184,26.482
		c-2.696,10.489-5.87,37.662-6.457,42.801c-1.499,1.532-2.264,2.475-2.264,2.475c-28.238,32.82-23.132,62.984-23.132,62.984
		c21.385,7.581,43.747,11.071,65.004,12.134l0.001,0.004l0,0.001l0,0l0.07,1.822c0,0,2.046,19.733,15.939,23.057
		c0,0,13.016,2.833,21.144-4.357c0,0,6.607-6.628,5.084-19.428c-0.079-0.665-0.152-1.277-0.219-1.847
		c37.588-3.054,64.85-11.283,64.85-11.283c-0.656-33.801-14.055-52.369-20.63-59.476l0.394-11.646L184.167,48.979z M171.73,28.875
		c2.306,24.268,2.809,46.203,2.809,46.203l0.059,0.441c-10.186-8.763-20.47-13.928-29.025-16.971
		C158.383,43.862,171.73,28.875,171.73,28.875z M133.029,62.236l-0.081,0.09L124,72.223l-6.208-11.123
		c2.267-0.075,4.603-0.053,7.007,0.078C124.8,61.178,127.952,61.203,133.029,62.236z M76.178,19.69
		c9.844,12.669,19.539,25.901,26.769,35.961c-16.012,3.118-28.082,10.208-35.883,16.179C67.826,49.541,76.178,19.69,76.178,19.69z
		 M122.056,177.634c0,0-14.04,2.917-17.367-22.351c2.986-0.545,6.856-1.123,11.18-1.455l4.926,14.463l3.15-14.734
		c3.615,0.046,7.346,0.334,10.998,0.993C135.951,159.682,138.065,176.69,122.056,177.634z M194.78,139.776
		c0,0-23.028,6.952-54.982,9.693c-0.045-0.3-0.077-0.462-0.033,0.002c-27.807,2.382-62.369,1.573-94.401-9.783
		c0,0-4.44-26.223,20.109-54.754c0,0,14.712-18.174,42.101-22.809c4.552,6.405,7.349,10.446,7.349,10.446l8.366,12.371
		c2.412-3.314,9.399-11.545,17.341-20.71c9.363,3.011,21.607,8.989,33.106,20.857C173.736,85.09,194.023,100.763,194.78,139.776z"/>
	
		<ellipse transform="matrix(-1 0.0014 -0.0014 -1 455.338 289.8053)" fill="#F8F8F8" cx="227.566" cy="145.065" rx="10.991" ry="7.712"/>
	
		<ellipse transform="matrix(-1 0.0013 -0.0013 -1 24.1753 290.0222)" fill="#F8F8F8" cx="11.991" cy="145.019" rx="10.991" ry="7.713"/>
	
		<ellipse transform="matrix(-0.9993 0.0385 -0.0385 -0.9993 270.9909 228.1908)" fill="#F8F8F8" cx="133.296" cy="116.708" rx="3.213" ry="7.584"/>
	
		<ellipse transform="matrix(-0.9993 0.0384 -0.0384 -0.9993 225.7164 230.1751)" fill="#F8F8F8" cx="110.646" cy="117.257" rx="3.214" ry="7.583"/>
</g>
</svg>
