<?xml version="1.0" encoding="utf-8"?>
<!-- Generator: Adobe Illustrator 19.1.0, SVG Export Plug-In . SVG Version: 6.00 Build 0)  -->
<svg version="1.1" id="Calque_1" xmlns="http://www.w3.org/2000/svg" xmlns:xlink="http://www.w3.org/1999/xlink" x="0px" y="0px"
	 viewBox="0 0 300 230" style="enable-background:new 0 0 300 230;" xml:space="preserve">
<style type="text/css">
	.st0{fill:#F8F8F8;}
</style>
<g>
	<path class="st0" d="M230.9,62.8l-3.6-49.2c0.3-2.4-1.8-1.2-1.8-1.2l-4.7,6.6l-13.4,15.4l-34,37.6l0,0c-10.3-2.7-17-2.7-17-2.7
		c-4.8-0.3-9.5-0.2-13.9,0.1l0,0l-21.4-32.1L93.6,0.6c-1.3-1.5-1.9,0.1-1.9,0.1c-1.9,0.9-2.3,12.8-2.3,12.8
		c-1.3,5.9-7.8,33.3-7.8,33.3c-3.4,13.2-7.4,47.3-8.1,53.8c-1.9,1.9-2.8,3.1-2.8,3.1c-35.5,41.2-29.1,79.1-29.1,79.1
		c26.9,9.5,55,13.9,81.7,15.2l0,0v0l0,0l0.1,2.3c0,0,2.6,24.8,20,29c0,0,16.4,3.6,26.6-5.5c0,0,8.3-8.3,6.4-24.4
		c-0.1-0.8-0.2-1.6-0.3-2.3c47.2-3.8,81.5-14.2,81.5-14.2c-0.8-42.5-17.7-65.8-25.9-74.7l0.5-14.6L230.9,62.8z M215.3,37.5
		c2.9,30.5,3.5,58.1,3.5,58.1l0.1,0.6c-12.8-11-25.7-17.5-36.5-21.3C198.5,56.4,215.3,37.5,215.3,37.5z M166.6,79.5l-0.1,0.1
		L155.3,92l-7.8-14c2.8-0.1,5.8-0.1,8.8,0.1C156.3,78.1,160.3,78.2,166.6,79.5z M95.2,26c12.4,15.9,24.5,32.5,33.6,45.2
		C108.7,75.1,93.6,84,83.8,91.5C84.7,63.5,95.2,26,95.2,26z M152.9,224.4c0,0-17.6,3.7-21.8-28.1c3.8-0.7,8.6-1.4,14-1.8l6.2,18.2
		l4-18.5c4.5,0.1,9.2,0.4,13.8,1.2C170.3,201.9,173,223.3,152.9,224.4z M244.2,176.9c0,0-28.9,8.7-69.1,12.2c-0.1-0.4-0.1-0.6,0,0
		c-34.9,3-78.4,2-118.6-12.3c0,0-5.6-32.9,25.3-68.8c0,0,18.5-22.8,52.9-28.7c5.7,8,9.2,13.1,9.2,13.1l10.5,15.5
		c3-4.2,11.8-14.5,21.8-26c11.8,3.8,27.1,11.3,41.6,26.2C217.8,108.2,243.3,127.9,244.2,176.9z"/>
	
		<ellipse transform="matrix(1.399999e-03 1 -1 1.399999e-03 468.5358 -102.1704)" class="st0" cx="285.4" cy="183.5" rx="9.7" ry="13.8"/>
	
		<ellipse transform="matrix(1.299999e-03 1 -1 1.299999e-03 198.0167 168.6467)" class="st0" cx="14.6" cy="183.5" rx="9.7" ry="13.8"/>
	
		<ellipse transform="matrix(3.849841e-02 0.9993 -0.9993 3.849841e-02 308.3152 -24.6708)" class="st0" cx="167" cy="147.9" rx="9.5" ry="4"/>
	
		<ellipse transform="matrix(3.839856e-02 0.9993 -0.9993 3.839856e-02 281.6615 4.4475)" class="st0" cx="138.5" cy="148.6" rx="9.5" ry="4"/>
</g>
</svg>
