<?xml version="1.0" encoding="utf-8"?>
<!-- Generator: Adobe Illustrator 19.2.0, SVG Export Plug-In . SVG Version: 6.00 Build 0)  -->
<svg version="1.1" id="Calque_1" xmlns="http://www.w3.org/2000/svg" xmlns:xlink="http://www.w3.org/1999/xlink" x="0px" y="0px"
	 viewBox="0 0 275 60" style="enable-background:new 0 0 275 60;" xml:space="preserve">
<style type="text/css">
	.st0{fill:#FFFFFF;}
	.st1{fill:#F8F8F8;}
</style>
<g>
	<path class="st0" d="M115.5,24.2h-3.9c-0.2,0-0.3-0.1-0.4-0.2c-0.1-0.1-0.2-0.2-0.2-0.4s0.1-0.3,0.2-0.4c0.1-0.1,0.3-0.2,0.4-0.2
		h8.9c0.2,0,0.3,0.1,0.4,0.2c0.1,0.1,0.2,0.2,0.2,0.4s-0.1,0.3-0.2,0.4c-0.1,0.1-0.2,0.2-0.4,0.2h-3.9v12.3c0,0.2-0.1,0.3-0.2,0.4
		c-0.1,0.1-0.3,0.2-0.4,0.2c-0.2,0-0.3-0.1-0.4-0.2c-0.1-0.1-0.2-0.3-0.2-0.4V24.2z"/>
	<path class="st0" d="M133.3,37c-0.2,0-0.3-0.1-0.4-0.2c-0.1-0.1-0.2-0.2-0.2-0.4v-5.8h-8v5.8c0,0.2-0.1,0.3-0.2,0.4
		c-0.1,0.1-0.3,0.2-0.4,0.2s-0.3-0.1-0.4-0.2c-0.1-0.1-0.2-0.2-0.2-0.4V23.6c0-0.2,0.1-0.3,0.2-0.4c0.1-0.1,0.2-0.2,0.4-0.2
		s0.3,0.1,0.4,0.2c0.1,0.1,0.2,0.2,0.2,0.4v5.8h8v-5.8c0-0.2,0.1-0.3,0.2-0.4c0.1-0.1,0.3-0.2,0.4-0.2s0.3,0.1,0.4,0.2
		c0.1,0.1,0.2,0.2,0.2,0.4v12.8c0,0.2-0.1,0.3-0.2,0.4C133.6,37,133.4,37,133.3,37z"/>
	<path class="st0" d="M138.2,37c-0.2,0-0.3-0.1-0.4-0.2c-0.1-0.1-0.2-0.2-0.2-0.4V23.6c0-0.2,0.1-0.3,0.2-0.4
		c0.1-0.1,0.3-0.2,0.4-0.2l7.8,0c0.2,0,0.3,0.1,0.4,0.2c0.1,0.1,0.2,0.3,0.2,0.4c0,0.2-0.1,0.3-0.2,0.4c-0.1,0.1-0.2,0.2-0.4,0.2
		l-7.2,0v5.3h5.4c0.2,0,0.3,0.1,0.4,0.2c0.1,0.1,0.2,0.2,0.2,0.4s-0.1,0.3-0.2,0.4c-0.1,0.1-0.2,0.2-0.4,0.2h-5.4v5.3h7.2
		c0.2,0,0.3,0.1,0.4,0.2c0.1,0.1,0.2,0.2,0.2,0.4s-0.1,0.3-0.2,0.4c-0.1,0.1-0.2,0.2-0.4,0.2H138.2z"/>
	<path class="st0" d="M171.7,23c0.2,0.1,0.3,0.2,0.3,0.3c0.1,0.1,0.1,0.3,0,0.4l-4.5,12.9c0,0,0,0,0,0c0,0,0,0,0,0c0,0,0,0,0,0.1v0
		l0,0c0,0,0,0.1-0.1,0.1c0,0,0,0,0,0c0,0,0,0-0.1,0c0,0,0,0,0,0c0,0,0,0-0.1,0h0c0,0,0,0,0,0c0,0,0,0,0,0c0,0,0,0-0.1,0c0,0,0,0,0,0
		c0,0-0.1,0-0.1,0c0,0-0.1,0-0.1,0c0,0,0,0,0,0c0,0,0,0-0.1,0c0,0,0,0,0,0c0,0,0,0,0,0c0,0-0.1,0-0.1,0c0,0,0,0,0,0c0,0,0,0-0.1,0
		c0,0,0,0,0,0c0,0-0.1-0.1-0.1-0.1v0c0,0,0,0,0,0c0,0,0,0,0-0.1c0,0,0,0,0,0c0,0,0,0,0,0l-4-11.3l-4,11.3c0,0,0,0,0,0c0,0,0,0,0,0
		c0,0,0,0,0,0.1v0l0,0c0,0,0,0.1-0.1,0.1c0,0,0,0,0,0c0,0,0,0-0.1,0c0,0,0,0,0,0c0,0-0.1,0-0.1,0h0l0,0c0,0,0,0,0,0c0,0,0,0-0.1,0
		c0,0,0,0,0,0c0,0-0.1,0-0.1,0c0,0-0.1,0-0.1,0c0,0,0,0,0,0c0,0,0,0-0.1,0c0,0,0,0,0,0l0,0h0c0,0-0.1,0-0.1,0c0,0,0,0,0,0
		c0,0,0,0-0.1,0c0,0,0,0,0,0c0,0,0-0.1-0.1-0.1c0,0,0,0,0,0l0,0c0,0,0,0,0-0.1c0,0,0,0,0,0c0,0,0,0,0,0l-4.5-12.9
		c-0.1-0.2-0.1-0.3,0-0.4c0.1-0.1,0.2-0.3,0.3-0.3c0.2-0.1,0.3,0,0.4,0c0.1,0.1,0.2,0.2,0.3,0.3l4,11.3l4-11.3c0,0,0,0,0,0
		c0,0,0,0,0-0.1c0,0,0,0,0,0c0,0,0,0,0,0c0,0,0,0,0,0c0,0,0,0,0,0c0,0,0,0,0,0c0,0,0,0,0.1,0c0,0,0,0,0,0c0,0,0.1,0,0,0c0,0,0,0,0,0
		c0,0,0,0,0.1,0c0,0,0,0,0.1,0c0,0,0,0,0.1,0c0,0,0,0,0.1,0c0,0,0,0,0,0c0,0,0,0,0.1,0c0,0,0,0,0,0l0,0c0,0,0,0,0,0c0,0,0,0,0,0
		c0,0,0,0,0,0c0,0,0,0,0,0c0,0,0,0,0,0c0,0,0,0,0,0c0,0,0,0,0,0c0,0,0,0,0,0c0,0,0,0,0,0.1c0,0,0,0,0,0l4,11.3l4-11.3
		c0.1-0.1,0.2-0.3,0.3-0.3c0.1-0.1,0.2-0.1,0.2-0.1S171.6,23,171.7,23z"/>
	<path class="st0" d="M175.3,37c-0.2,0-0.3-0.1-0.4-0.2c-0.1-0.1-0.2-0.2-0.2-0.4V23.6c0-0.2,0.1-0.3,0.2-0.4
		c0.1-0.1,0.3-0.2,0.4-0.2l7.8,0c0.2,0,0.3,0.1,0.4,0.2c0.1,0.1,0.2,0.3,0.2,0.4c0,0.2-0.1,0.3-0.2,0.4c-0.1,0.1-0.2,0.2-0.4,0.2
		l-7.2,0v5.3h5.4c0.2,0,0.3,0.1,0.4,0.2c0.1,0.1,0.2,0.2,0.2,0.4s-0.1,0.3-0.2,0.4c-0.1,0.1-0.2,0.2-0.4,0.2h-5.4v5.3h7.2
		c0.2,0,0.3,0.1,0.4,0.2c0.1,0.1,0.2,0.2,0.2,0.4s-0.1,0.3-0.2,0.4c-0.1,0.1-0.2,0.2-0.4,0.2H175.3z"/>
	<path class="st0" d="M187.1,37c-0.2,0-0.3-0.1-0.4-0.2c-0.1-0.1-0.2-0.2-0.2-0.4V23.6c0-0.2,0.1-0.3,0.2-0.4
		c0.1-0.1,0.3-0.2,0.4-0.2l4.5,0c1.2,0,2.1,0.4,2.9,1.1c0.8,0.7,1.2,1.6,1.2,2.7c0,0.7-0.2,1.3-0.5,1.8c-0.3,0.6-0.7,1-1.3,1.4
		c0.6,0.3,1.1,0.8,1.5,1.3c0.4,0.6,0.6,1.2,0.6,1.9c0,1-0.4,1.9-1.2,2.7c-0.8,0.7-1.8,1.1-2.9,1.1H187.1z M187.7,29.5l3.9,0
		c0.8,0,1.5-0.3,2.1-0.8s0.9-1.2,0.9-1.9c0-0.7-0.3-1.3-0.8-1.8c-0.6-0.5-1.3-0.7-2.1-0.7l-3.9,0V29.5z M187.7,35.9h4.2
		c0.8,0,1.5-0.3,2.1-0.8c0.6-0.5,0.9-1.1,0.9-1.9s-0.3-1.3-0.8-1.8c-0.6-0.5-1.3-0.8-2.1-0.8c0,0-0.1,0-0.1,0c-0.1,0-0.1,0-0.2,0
		h-3.9V35.9z"/>
	<path class="st0" d="M198.4,23.1c0.2,0,0.3,0.1,0.4,0.2c0.1,0.1,0.2,0.2,0.2,0.4v2c0,0.2-0.1,0.3-0.2,0.4c-0.1,0.1-0.2,0.2-0.4,0.2
		c-0.2,0-0.3-0.1-0.4-0.2c-0.1-0.1-0.2-0.2-0.2-0.4v-2c0-0.2,0.1-0.3,0.2-0.4C198.1,23.1,198.2,23.1,198.4,23.1z"/>
	<path class="st0" d="M206.3,30.6c-1.6,0-2.7-0.5-3.5-1.3c-0.6-0.7-0.9-1.5-0.9-2.4c0.1-1.1,0.5-2,1.3-2.8c0.8-0.8,1.8-1.1,3-1.1
		c1,0,1.9,0.2,2.8,0.6c1,0.5,1.6,1.2,1.8,2.2c0,0.2,0,0.3-0.1,0.4c-0.1,0.1-0.2,0.2-0.4,0.3c-0.2,0-0.3,0-0.4-0.1
		c-0.1-0.1-0.2-0.2-0.3-0.4c-0.2-0.7-0.6-1.2-1.4-1.5c-0.6-0.3-1.3-0.4-2.1-0.4c-0.9,0-1.6,0.3-2.2,0.8s-0.9,1.2-1,2
		c0,0.6,0.2,1.1,0.6,1.5c0.6,0.6,1.5,0.9,2.7,0.9c0.2,0,0.3,0.1,0.4,0.2c0.1,0.1,0.2,0.3,0.2,0.4c0,0.2-0.1,0.3-0.2,0.4
		C206.6,30.6,206.5,30.6,206.3,30.6L206.3,30.6z M203.7,36.4c-1-0.5-1.6-1.3-1.8-2.2c0-0.1,0-0.3,0.1-0.4c0.1-0.1,0.2-0.2,0.4-0.3
		c0.1,0,0.3,0,0.4,0.1c0.1,0.1,0.2,0.2,0.3,0.4c0.2,0.7,0.6,1.2,1.4,1.6c0.6,0.3,1.3,0.4,2.1,0.4c0.9,0,1.6-0.3,2.2-0.8s0.9-1.2,1-2
		c0-0.6-0.2-1.1-0.6-1.5c-0.6-0.6-1.5-0.9-2.7-0.9c-0.2,0-0.3-0.1-0.4-0.2s-0.2-0.3-0.2-0.4c0-0.2,0.1-0.3,0.2-0.4
		c0.1-0.1,0.2-0.2,0.4-0.2c1.6,0,2.7,0.5,3.5,1.3c0.6,0.7,0.9,1.5,0.9,2.3c0,1.1-0.5,2-1.3,2.8c-0.8,0.8-1.8,1.1-3,1.1
		C205.5,37,204.5,36.8,203.7,36.4z"/>
	<path class="st0" d="M219,37c-0.2,0-0.3-0.1-0.4-0.2c-0.1-0.1-0.2-0.3-0.2-0.4V23.6c0-0.2,0.1-0.3,0.2-0.4c0.1-0.1,0.2-0.2,0.4-0.2
		h3.3c1.9,0,3.6,0.7,4.9,2.1s2.1,3,2.1,4.9c0,1.9-0.7,3.6-2.1,4.9s-3,2.1-4.9,2.1L219,37L219,37z M219.6,35.9l2.7,0
		c1.6,0,3-0.6,4.1-1.7c1.1-1.1,1.7-2.5,1.7-4.1s-0.6-3-1.7-4.1c-1.1-1.1-2.5-1.7-4.1-1.7h-2.7V35.9z"/>
	<path class="st0" d="M238.8,37c-1.9,0-3.6-0.7-5-2.1s-2.1-3-2.1-5c0-1.9,0.7-3.6,2.1-5s3-2.1,5-2.1s3.6,0.7,5,2.1s2.1,3,2.1,5
		c0,1.9-0.7,3.6-2.1,5S240.7,37,238.8,37z M238.8,24.2c-1.6,0-3,0.6-4.1,1.7c-1.1,1.1-1.7,2.5-1.7,4.1c0,1.6,0.6,3,1.7,4.1
		s2.5,1.7,4.1,1.7s3-0.6,4.1-1.7c1.1-1.1,1.7-2.5,1.7-4.1c0-1.6-0.6-3-1.7-4.1C241.8,24.8,240.4,24.2,238.8,24.2z"/>
	<path class="st0" d="M255.2,37c-1.9,0-3.6-0.7-5-2.1s-2.1-3-2.1-5c0-1.9,0.7-3.6,2.1-5s3-2.1,5-2.1s3.6,0.7,5,2.1s2.1,3,2.1,5
		c0,1.9-0.7,3.6-2.1,5S257.1,37,255.2,37z M255.2,24.2c-1.6,0-3,0.6-4.1,1.7c-1.1,1.1-1.7,2.5-1.7,4.1c0,1.6,0.6,3,1.7,4.1
		s2.5,1.7,4.1,1.7s3-0.6,4.1-1.7c1.1-1.1,1.7-2.5,1.7-4.1c0-1.6-0.6-3-1.7-4.1C258.2,24.8,256.8,24.2,255.2,24.2z"/>
	<path class="st0" d="M270.5,23.1c1.1,0,2.1,0.4,2.9,1.1c0.8,0.7,1.2,1.6,1.2,2.7c0,0.9-0.3,1.7-1,2.4c-0.6,0.7-1.4,1.1-2.4,1.3
		l2.8,5.7c0.1,0.1,0.1,0.3,0,0.4s-0.1,0.3-0.3,0.3c-0.1,0-0.2,0.1-0.3,0.1c-0.2,0-0.4-0.1-0.5-0.3l-3-6.1h-3.3v5.8
		c0,0.2-0.1,0.3-0.2,0.4c-0.1,0.1-0.2,0.2-0.4,0.2c-0.2,0-0.3-0.1-0.4-0.2c-0.1-0.1-0.2-0.3-0.2-0.4V23.6c0-0.2,0.1-0.3,0.2-0.4
		c0.1-0.1,0.3-0.2,0.4-0.2H270.5z M273.4,26.8c0-0.7-0.3-1.3-0.9-1.8c-0.6-0.5-1.3-0.8-2.1-0.8h-3.8v5.2h3.9c0.8,0,1.5-0.3,2-0.8
		C273.1,28.1,273.4,27.5,273.4,26.8z"/>
</g>
<g>
	<path class="st1" d="M22.5,57.1c0,0-2.2-13,10-27.2c0,0,7.3-9,20.9-11.3c2.3,3.2,3.6,5.2,3.6,5.2l4.1,6.1c1.2-1.6,4.7-5.7,8.6-10.3
		c4.6,1.5,10.7,4.5,16.4,10.3c0,0,10.1,7.8,10.4,27.1c0,0-4.7,1.4-12.3,2.8h16.1c1-0.3,1.5-0.4,1.5-0.4c-0.3-16.8-7-26-10.2-29.5
		l0.2-5.8l-0.5-12.1L90.5,0h-7.6l-0.8,0.9L68.6,15.8c-4.1-1-6.7-1.1-6.7-1.1c-1.9-0.1-3.7-0.1-5.5,0l0,0L48,2.1L46.4,0h-6.8
		c4.2,5.5,8.3,11.1,11.4,15.5c-7.9,1.5-13.9,5.1-17.8,8C33.6,15.1,36,4.6,37.2,0h-3.4c-0.7,3-1.4,5.8-1.4,5.8
		c-1.3,5.2-2.9,18.7-3.2,21.2c-0.7,0.8-1.1,1.2-1.1,1.2c-14,16.3-11.5,31.2-11.5,31.2c0.5,0.2,1,0.3,1.4,0.5h14.5
		C29.2,59.2,25.8,58.3,22.5,57.1z M85.2,2.2c1.1,12,1.4,22.9,1.4,22.9l0,0.2c-5.1-4.3-10.2-6.9-14.4-8.4C78.6,9.6,85.2,2.2,85.2,2.2
		z M61.9,18.2c0,0,1.6,0,4.1,0.5l0,0l-4.4,4.9l-3.1-5.5C59.6,18.1,60.7,18.1,61.9,18.2z"/>
	<path class="st1" d="M118.3,59.8c0-2.1-2.4-3.8-5.5-3.8c-3,0-5.4,1.7-5.4,3.8c0,0.1,0,0.1,0,0.2h10.9
		C118.3,59.9,118.3,59.9,118.3,59.8z"/>
	<path class="st1" d="M11.4,59.8c0-2.1-2.4-3.8-5.5-3.8c-3,0-5.4,1.7-5.4,3.8c0,0.1,0,0.1,0,0.2h10.9C11.4,59.9,11.4,59.9,11.4,59.8
		z"/>
	
		<ellipse transform="matrix(0.9993 -3.850042e-02 3.850042e-02 0.9993 -1.7121 2.5795)" class="st1" cx="66.1" cy="45.7" rx="1.6" ry="3.8"/>
	
		<ellipse transform="matrix(0.9993 -3.840009e-02 3.840009e-02 0.9993 -1.7266 2.1415)" class="st1" cx="54.9" cy="46" rx="1.6" ry="3.8"/>
</g>
</svg>
