<?xml version="1.0" encoding="utf-8"?>
<!-- Generator: Adobe Illustrator 19.1.0, SVG Export Plug-In . SVG Version: 6.00 Build 0)  -->
<svg version="1.1" id="Calque_1" xmlns="http://www.w3.org/2000/svg" xmlns:xlink="http://www.w3.org/1999/xlink" x="0px" y="0px"
	 viewBox="0 0 275 60" style="enable-background:new 0 0 275 60;" xml:space="preserve">
<style type="text/css">
	.st0{fill:#FFFFFF;}
</style>
<g>
	<path class="st0" d="M92,12L90.5-7.6c0.1-1-0.7-0.5-0.7-0.5l-1.9,2.7l-5.4,6.1L69,15.7l0,0c-4.1-1.1-6.8-1.1-6.8-1.1
		c-1.9-0.1-3.8-0.1-5.6,0l0,0L48.1,1.8l-11-14.7c-0.5-0.6-0.8,0-0.8,0c-0.8,0.4-0.9,5.1-0.9,5.1c-0.5,2.3-3.1,13.3-3.1,13.3
		c-1.4,5.3-2.9,18.9-3.2,21.5c-0.8,0.8-1.1,1.2-1.1,1.2C13.7,44.9,16.3,60,16.3,60c10.7,3.8,22,5.6,32.6,6.1l0,0v0l0,0l0,0.9
		c0,0,1,9.9,8,11.6c0,0,6.5,1.4,10.6-2.2c0,0,3.3-3.3,2.6-9.8c0-0.3-0.1-0.6-0.1-0.9c18.9-1.5,32.6-5.7,32.6-5.7
		c-0.3-17-7.1-26.3-10.4-29.9l0.2-5.8L92,12z M85.7,1.9c1.2,12.2,1.4,23.2,1.4,23.2l0,0.2c-5.1-4.4-10.3-7-14.6-8.5
		C79,9.5,85.7,1.9,85.7,1.9z M66.3,18.7L66.3,18.7l-4.5,5l-3.1-5.6c1.1,0,2.3,0,3.5,0C62.1,18.2,63.7,18.2,66.3,18.7z M37.7-2.7
		c4.9,6.4,9.8,13,13.4,18.1c-8,1.6-14.1,5.1-18,8.1C33.5,12.3,37.7-2.7,37.7-2.7z M60.8,76.6c0,0-7.1,1.5-8.7-11.2
		c1.5-0.3,3.4-0.6,5.6-0.7l2.5,7.3l1.6-7.4c1.8,0,3.7,0.2,5.5,0.5C67.7,67.6,68.8,76.2,60.8,76.6z M97.3,57.6c0,0-11.6,3.5-27.6,4.9
		c0-0.2,0-0.2,0,0c-14,1.2-31.3,0.8-47.4-4.9c0,0-2.2-13.2,10.1-27.5c0,0,7.4-9.1,21.1-11.5c2.3,3.2,3.7,5.2,3.7,5.2l4.2,6.2
		c1.2-1.7,4.7-5.8,8.7-10.4c4.7,1.5,10.9,4.5,16.6,10.5C86.7,30.2,96.9,38,97.3,57.6z"/>
	
		<ellipse transform="matrix(1.399999e-03 1 -1 1.399999e-03 173.8843 -53.5495)" class="st0" cx="113.8" cy="60.3" rx="3.9" ry="5.5"/>
	<ellipse transform="matrix(1.299999e-03 1 -1 1.299999e-03 65.7646 54.6879)" class="st0" cx="5.5" cy="60.3" rx="3.9" ry="5.5"/>
	
		<ellipse transform="matrix(3.849841e-02 0.9993 -0.9993 3.849841e-02 109.8698 -22.0908)" class="st0" cx="66.4" cy="46" rx="3.8" ry="1.6"/>
	
		<ellipse transform="matrix(3.839856e-02 0.9993 -0.9993 3.839856e-02 99.2169 -10.4543)" class="st0" cx="55" cy="46.3" rx="3.8" ry="1.6"/>
</g>
<g>
	<path class="st0" d="M117.7,26v11.9h-3.3V26h-4.2v-2.8h11.6V26H117.7z"/>
	<path class="st0" d="M132,23.1h3.3v14.7H132v-5.8h-5.8v5.8h-3.3V23.1h3.3v6.1h5.8V23.1z"/>
	<path class="st0" d="M146.9,23.1v2.9h-7.3v3h6.6v2.8h-6.6v3h7.5v2.9h-10.8V23.1H146.9z"/>
	<path class="st0" d="M158.9,31.6l2.6-8.4h3.4l2.6,8.4l2.9-8.4h3.6l-5.1,14.7h-2.4l-3.2-10.2L160,37.8h-2.4l-5.1-14.7h3.6
		L158.9,31.6z"/>
	<path class="st0" d="M185.6,23.1v2.9h-7.3v3h6.6v2.8h-6.6v3h7.5v2.9H175V23.1H185.6z"/>
	<path class="st0" d="M193.3,37.8h-6.4V23.1h5.7c1,0,1.9,0.1,2.6,0.4c0.7,0.2,1.3,0.6,1.6,1c0.7,0.8,1,1.6,1,2.6
		c0,1.1-0.4,2-1.1,2.6c-0.3,0.2-0.4,0.3-0.5,0.4c-0.1,0-0.3,0.1-0.5,0.2c0.9,0.2,1.6,0.6,2.2,1.2c0.5,0.6,0.8,1.4,0.8,2.3
		c0,1-0.3,1.9-1.1,2.7C196.8,37.4,195.3,37.8,193.3,37.8z M190.2,29.1h1.6c0.9,0,1.6-0.1,2-0.3s0.7-0.6,0.7-1.3
		c0-0.7-0.2-1.1-0.6-1.3s-1.1-0.3-2.1-0.3h-1.6V29.1z M190.2,35.1h2.2c0.9,0,1.6-0.1,2.1-0.3c0.5-0.2,0.7-0.7,0.7-1.4
		c0-0.7-0.2-1.1-0.7-1.3c-0.5-0.2-1.3-0.3-2.4-0.3h-1.9V35.1z"/>
	<path class="st0" d="M199.6,25.3c-0.5-0.3-0.7-0.7-0.7-1.3c0-0.6,0.2-1,0.5-1.3c0.3-0.3,0.7-0.5,1.2-0.5c0.5,0,0.9,0.2,1.2,0.5
		c0.3,0.3,0.5,0.7,0.5,1.2s-0.2,1-0.5,1.5l-1.5,2.2h-1.7L199.6,25.3z"/>
	<path class="st0" d="M206.8,25.9c-0.3,0.3-0.5,0.6-0.5,1c0,0.4,0.2,0.8,0.6,1c0.4,0.3,1.3,0.6,2.7,0.9c1.4,0.3,2.5,0.9,3.2,1.5
		c0.8,0.7,1.2,1.7,1.2,3c0,1.3-0.5,2.4-1.5,3.2c-1,0.8-2.3,1.2-3.9,1.2c-2.3,0-4.4-0.9-6.3-2.6l2-2.4c1.6,1.4,3,2.1,4.4,2.1
		c0.6,0,1.1-0.1,1.4-0.4c0.3-0.3,0.5-0.6,0.5-1.1s-0.2-0.8-0.5-1.1c-0.4-0.3-1.1-0.5-2.2-0.8c-1.7-0.4-3-0.9-3.8-1.6
		c-0.8-0.7-1.2-1.7-1.2-3.1c0-1.4,0.5-2.5,1.5-3.2c1-0.8,2.3-1.1,3.8-1.1c1,0,2,0.2,2.9,0.5c1,0.3,1.8,0.8,2.6,1.4l-1.7,2.4
		c-1.3-1-2.6-1.5-4-1.5C207.6,25.5,207.1,25.6,206.8,25.9z"/>
	<path class="st0" d="M230.5,24.8c1.4,1.3,2.1,3.1,2.1,5.4c0,2.3-0.7,4.1-2,5.4c-1.4,1.3-3.5,2-6.3,2h-5V22.9h5.2
		C227.1,22.9,229.1,23.5,230.5,24.8z M228.1,33.5c0.8-0.8,1.2-1.9,1.2-3.3c0-1.4-0.4-2.6-1.2-3.3c-0.8-0.8-2-1.2-3.7-1.2h-1.8v8.9
		h2.1C226.1,34.7,227.3,34.3,228.1,33.5z"/>
	<path class="st0" d="M246.8,35.6c-1.5,1.5-3.3,2.2-5.5,2.2s-4-0.7-5.5-2.2c-1.5-1.5-2.2-3.3-2.2-5.4c0-2.2,0.7-4,2.2-5.4
		c1.5-1.5,3.3-2.2,5.5-2.2s4,0.7,5.5,2.2c1.5,1.5,2.2,3.3,2.2,5.4C249.1,32.4,248.3,34.2,246.8,35.6z M245.7,30.2
		c0-1.3-0.4-2.4-1.3-3.4s-1.9-1.4-3.1-1.4c-1.2,0-2.3,0.5-3.1,1.4c-0.8,0.9-1.3,2-1.3,3.4c0,1.3,0.4,2.4,1.3,3.3
		c0.8,0.9,1.9,1.4,3.1,1.4c1.2,0,2.3-0.5,3.1-1.4C245.3,32.7,245.7,31.5,245.7,30.2z"/>
	<path class="st0" d="M258.9,35.6c-1.5,1.5-3.3,2.2-5.5,2.2s-4-0.7-5.5-2.2s-2.2-3.3-2.2-5.4c0-2.2,0.7-4,2.2-5.4
		c1.5-1.5,3.3-2.2,5.5-2.2s4,0.7,5.5,2.2c1.5,1.5,2.2,3.3,2.2,5.4C261.2,32.4,260.4,34.2,258.9,35.6z M257.8,30.2
		c0-1.3-0.4-2.4-1.3-3.4s-1.9-1.4-3.1-1.4c-1.2,0-2.3,0.5-3.1,1.4c-0.8,0.9-1.3,2-1.3,3.4c0,1.3,0.4,2.4,1.3,3.3
		c0.8,0.9,1.9,1.4,3.1,1.4c1.2,0,2.3-0.5,3.1-1.4S257.8,31.5,257.8,30.2z"/>
	<path class="st0" d="M274.1,27.8c0,2.4-0.9,3.9-2.8,4.6l3.7,5.3h-4l-3.3-4.7h-2.3v4.7h-3.3V22.9h5.6c2.3,0,3.9,0.4,4.9,1.2
		C273.6,24.8,274.1,26.1,274.1,27.8z M270.1,29.5c0.4-0.4,0.6-0.9,0.6-1.7c0-0.8-0.2-1.3-0.6-1.6c-0.4-0.3-1.2-0.4-2.2-0.4h-2.5v4.4
		h2.4C269,30.1,269.7,29.9,270.1,29.5z"/>
</g>
</svg>
