<?xml version="1.0" encoding="utf-8"?>
<!-- Generator: Adobe Illustrator 18.1.1, SVG Export Plug-In . SVG Version: 6.00 Build 0)  -->
<svg version="1.1" id="Calque_1" xmlns="http://www.w3.org/2000/svg" xmlns:xlink="http://www.w3.org/1999/xlink" x="0px" y="0px"
	 viewBox="0 0 412.8 160" enable-background="new 0 0 412.8 160" xml:space="preserve">
<g>
	<g>
		<path fill="#FFFFFF" d="M30.6,0v28.5H13.1V40H0V0H30.6z M13.2,18.9h4.1V9.4h-4.1V18.9z"/>
		<path fill="#FFFFFF" d="M64.6,0v22.9h-3.5v1.9h3.5V40H51.5V25.5h-4.4V40H34V0H64.6z M47.2,14.5h4.1v-3.8h-4.1V14.5z"/>
		<path fill="#FFFFFF" d="M98.9,0v10.6h-17v4.1h17v10.7h-17v4.1h17V40H68.7V0H98.9z"/>
		<path fill="#FFFFFF" d="M121.3,29.4v-4.1h-18.6V0h31.5v10.6h-18.6v4.1h18.6V40h-31.5V29.4H121.3z"/>
		<path fill="#FFFFFF" d="M156.5,29.4v-4.1H138V0h31.5v10.6h-18.6v4.1h18.6V40H138V29.4H156.5z"/>
		<path fill="#FFFFFF" d="M229,0v10.6h-17v4.1h17v10.7h-17v4.1h17V40h-30.3V0H229z"/>
		<path fill="#FFFFFF" d="M245.8,0v4.9h4.7v4.7h5.1v4.9h1.9V0h12.4v40h-12.4v-4.9h-5.1v-4.7h-5.1v-4.9h-1.9V40h-12.8V0H245.8z"/>
		<path fill="#FFFFFF" d="M273.7,10.6V0h30.6v10.6h-8.7V40h-13.2V10.6H273.7z"/>
		<path fill="#FFFFFF" d="M338,0v10.6h-17v4.1h17v10.7h-17v4.1h17V40h-30.3V0H338z"/>
		<path fill="#FFFFFF" d="M372.3,0v22.9h-3.5v1.9h3.5V40h-13.1V25.5h-4.4V40h-13.1V0H372.3z M354.9,14.5h4.1v-3.8h-4.1V14.5z"/>
	</g>
	<g>
		<path fill="#FFFFFF" d="M137.4,70.4V60h30v10.4h-8.5v28.9h-13V70.4H137.4z"/>
		<path fill="#FFFFFF" d="M170.7,94.4V64.8h4.5V60h27.1v4.8h4.8v29.6h-4.8v4.8h-27.1v-4.8H170.7z M183,89h11.4V70.5H183V89z"/>
		<path fill="#FFFFFF" d="M265.7,60v28h-17.1v11.2h-12.8V60H265.7z M248.7,78.5h4.1v-9.2h-4.1V78.5z"/>
		<path fill="#FFFFFF" d="M281.6,60v28.9h16.8v10.4h-29.3V60H281.6z"/>
		<path fill="#FFFFFF" d="M331.5,60v39.2h-12.8V88.7h-4.4v10.5h-12.8V60H331.5z M314.5,79.2h4.1v-9.9h-4.1V79.2z"/>
		<path fill="#FFFFFF" d="M343.4,85.2v-3.7h-3.7v-3.7h-4.5V60.3H348v9.4h3.7v3.5h4v-3.5h3.7v-9.4h12.8v17.4h-4.5v3.7H364v3.7h-3.7
			v14.3h-13.2V85.2H343.4z"/>
	</g>
</g>
<g>
	<polygon fill="#FFFFFF" points="397.8,0 397.8,5 407.8,5 407.8,25 392.8,25 392.8,20 387.8,20 387.8,25 382.8,25 382.8,30 
		387.8,30 387.8,35 392.8,35 392.8,30 412.8,30 412.8,0 	"/>
	<rect x="392.8" y="35" fill="#FFFFFF" width="5" height="5"/>
	<rect x="392.8" y="15" fill="#FFFFFF" width="5" height="5"/>
</g>
<g>
	<rect x="387.8" y="129.2" fill="#FFFFFF" width="5" height="5"/>
	<polygon fill="#FFFFFF" points="402.8,124 402.8,119.2 397.8,119.2 397.8,124.2 392.8,124.2 392.8,129.2 397.8,129.2 397.8,145.6 
		402.8,145.6 402.8,129 407.8,129 407.8,124 	"/>
	<rect x="407.8" y="129" fill="#FFFFFF" width="5" height="5"/>
	<rect x="397.8" y="147.8" fill="#FFFFFF" width="5" height="5"/>
	<rect x="397.8" y="155" fill="#FFFFFF" width="5" height="5"/>
</g>
<g>
	<path fill="#FFFFFF" d="M19.7,119.2V145h-8.4v-6.9H8.4v6.9H0v-25.8H19.7z M8.5,131.8h2.7v-6.5H8.5V131.8z"/>
	<path fill="#FFFFFF" d="M30.7,119.2v3.2h3.1v3H37v3.2h1.2v-9.3h8V145h-8v-3.2H35v-3h-3.3v-3.2h-1.2v9.3h-8.2v-25.8H30.7z"/>
	<path fill="#FFFFFF" d="M67,119.2v2.3h2.3v21.1H67v2.3H48.9v-25.8H67z M57.4,138.1h3.4v-12h-3.4V138.1z"/>
	<path fill="#FFFFFF" d="M100.4,138.2v-2.6h-12v-16.3h20.3v6.8h-12v2.6h12V145H88.4v-6.8H100.4z"/>
	<path fill="#FFFFFF" d="M130.8,119.2v18.4h-11.3v7.4h-8.4v-25.8H130.8z M119.7,131.4h2.7v-6.1h-2.7V131.4z"/>
	<path fill="#FFFFFF" d="M152.7,119.2V145h-8.4v-6.9h-2.9v6.9h-8.4v-25.8H152.7z M141.6,131.8h2.7v-6.5h-2.7V131.8z"/>
	<path fill="#FFFFFF" d="M155.4,141.8v-19.4h3.2v-3.2h17.7v6.8h-12.6v12.2h12.6v6.8h-17.7v-3.2H155.4z"/>
	<path fill="#FFFFFF" d="M198,119.2v6.8h-11v2.6h11v6.9h-11v2.6h11v6.8h-19.5v-25.8H198z"/>
	<path fill="#FFFFFF" d="M216.6,126v-6.8h19.7v6.8h-5.6v19h-8.5v-19H216.6z"/>
	<path fill="#FFFFFF" d="M238.5,141.8v-19.4h3v-3.2h17.8v3.2h3.1v19.4h-3.1v3.2h-17.8v-3.2H238.5z M246.6,138.3h7.5v-12.2h-7.5
		V138.3z"/>
	<path fill="#FFFFFF" d="M291.7,138.2v-19h8.2V145h-19.3v-6.8H291.7z"/>
	<path fill="#FFFFFF" d="M302.6,142.4v-22.6h8.2v18.9h4.5v-18.9h8.2v22.6h-3.2v3.2h-14.6v-3.2H302.6z"/>
	<path fill="#FFFFFF" d="M334.1,119.2v3.2h3.3v2.9h1.2v-2.9h3.3v-3.2h8V145h-8V134h-1.4v2.8h-5.1V134h-1.2V145h-8.2v-25.8H334.1z"/>
	<path fill="#FFFFFF" d="M372.2,119.2v18.4h-11.3v7.4h-8.4v-25.8H372.2z M361,131.4h2.7v-6.1H361V131.4z"/>
</g>
<rect x="0" y="155" fill="#FFFFFF" width="372.2" height="5"/>
</svg>
