<?xml version="1.0" encoding="utf-8"?>
<!-- Generator: Adobe Illustrator 18.1.1, SVG Export Plug-In . SVG Version: 6.00 Build 0)  -->
<svg version="1.1" id="Calque_1" xmlns="http://www.w3.org/2000/svg" xmlns:xlink="http://www.w3.org/1999/xlink" x="0px" y="0px"
	 viewBox="0 0 516.8 160" enable-background="new 0 0 516.8 160" xml:space="preserve">
<g display="none">
	<g display="inline">
		<path fill="#FFFFFF" d="M134.6,0v28.5h-17.5V40h-13.1V0H134.6z M117.3,18.9h4.1V9.4h-4.1V18.9z"/>
		<path fill="#FFFFFF" d="M168.6,0v22.9h-3.5v1.9h3.5V40h-13.1V25.5h-4.4V40h-13.1V0H168.6z M151.3,14.5h4.1v-3.8h-4.1V14.5z"/>
		<path fill="#FFFFFF" d="M203,0v10.6h-17v4.1h17v10.7h-17v4.1h17V40h-30.3V0H203z"/>
		<path fill="#FFFFFF" d="M225.3,29.4v-4.1h-18.6V0h31.5v10.6h-18.6v4.1h18.6V40h-31.5V29.4H225.3z"/>
		<path fill="#FFFFFF" d="M260.6,29.4v-4.1H242V0h31.5v10.6h-18.6v4.1h18.6V40H242V29.4H260.6z"/>
		<path fill="#FFFFFF" d="M333,0v10.6h-17v4.1h17v10.7h-17v4.1h17V40h-30.3V0H333z"/>
		<path fill="#FFFFFF" d="M349.9,0v4.9h4.7v4.7h5.1v4.9h1.9V0h12.4v40h-12.4v-4.9h-5.1v-4.7h-5.1v-4.9h-1.9V40h-12.8V0H349.9z"/>
		<path fill="#FFFFFF" d="M377.8,10.6V0h30.6v10.6h-8.7V40h-13.2V10.6H377.8z"/>
		<path fill="#FFFFFF" d="M442,0v10.6h-17v4.1h17v10.7h-17v4.1h17V40h-30.3V0H442z"/>
		<path fill="#FFFFFF" d="M476.3,0v22.9h-3.5v1.9h3.5V40h-13.1V25.5h-4.4V40h-13.1V0H476.3z M459,14.5h4.1v-3.8H459V14.5z"/>
	</g>
	<g display="inline">
		<path fill="#FFFFFF" d="M241.4,70.4V60h30v10.4h-8.5v28.9h-13V70.4H241.4z"/>
		<path fill="#FFFFFF" d="M274.7,94.4V64.8h4.5V60h27.1v4.8h4.8v29.6h-4.8v4.8h-27.1v-4.8H274.7z M287.1,89h11.4V70.5h-11.4V89z"/>
		<path fill="#FFFFFF" d="M369.8,60v28h-17.1v11.2h-12.8V60H369.8z M352.8,78.5h4.1v-9.2h-4.1V78.5z"/>
		<path fill="#FFFFFF" d="M385.7,60v28.9h16.8v10.4h-29.3V60H385.7z"/>
		<path fill="#FFFFFF" d="M435.5,60v39.2h-12.8V88.7h-4.4v10.5h-12.8V60H435.5z M418.5,79.2h4.1v-9.9h-4.1V79.2z"/>
		<path fill="#FFFFFF" d="M447.4,85.2v-3.7h-3.7v-3.7h-4.5V60.3H452v9.4h3.7v3.5h4v-3.5h3.7v-9.4h12.8v17.4h-4.5v3.7h-3.7v3.7h-3.7
			v14.3h-13.2V85.2H447.4z"/>
	</g>
</g>
<g>
	<polygon fill="#FFFFFF" points="501.8,0 501.8,5 511.8,5 511.8,25 496.8,25 496.8,20 491.8,20 491.8,25 486.8,25 486.8,30 
		491.8,30 491.8,35 496.8,35 496.8,30 516.8,30 516.8,0 	"/>
	<rect x="496.8" y="35" fill="#FFFFFF" width="5" height="5"/>
	<rect x="496.8" y="15" fill="#FFFFFF" width="5" height="5"/>
</g>
<g>
	<rect x="491.8" y="129.2" fill="#FFFFFF" width="5" height="5"/>
	<polygon fill="#FFFFFF" points="506.8,124 506.8,119.2 501.8,119.2 501.8,124.2 496.8,124.2 496.8,129.2 501.8,129.2 501.8,145.6 
		506.8,145.6 506.8,129 511.8,129 511.8,124 	"/>
	<rect x="511.8" y="129" fill="#FFFFFF" width="5" height="5"/>
	<rect x="501.8" y="147.8" fill="#FFFFFF" width="5" height="5"/>
	<rect x="501.8" y="155" fill="#FFFFFF" width="5" height="5"/>
</g>
<g display="none">
	<path display="inline" fill="#FFFFFF" d="M123.7,119.2V145h-8.4v-6.9h-2.9v6.9h-8.4v-25.8H123.7z M112.6,131.8h2.7v-6.5h-2.7V131.8
		z"/>
	<path display="inline" fill="#FFFFFF" d="M134.8,119.2v3.2h3.1v3h3.3v3.2h1.2v-9.3h8V145h-8v-3.2H139v-3h-3.3v-3.2h-1.2v9.3h-8.2
		v-25.8H134.8z"/>
	<path display="inline" fill="#FFFFFF" d="M171.1,119.2v2.3h2.3v21.1h-2.3v2.3h-18.1v-25.8H171.1z M161.4,138.1h3.4v-12h-3.4V138.1z
		"/>
	<path display="inline" fill="#FFFFFF" d="M204.5,138.2v-2.6h-12v-16.3h20.3v6.8h-12v2.6h12V145h-20.3v-6.8H204.5z"/>
	<path display="inline" fill="#FFFFFF" d="M234.9,119.2v18.4h-11.3v7.4h-8.4v-25.8H234.9z M223.7,131.4h2.7v-6.1h-2.7V131.4z"/>
	<path display="inline" fill="#FFFFFF" d="M256.8,119.2V145h-8.4v-6.9h-2.9v6.9h-8.4v-25.8H256.8z M245.6,131.8h2.7v-6.5h-2.7V131.8
		z"/>
	<path display="inline" fill="#FFFFFF" d="M259.4,141.8v-19.4h3.2v-3.2h17.7v6.8h-12.6v12.2h12.6v6.8h-17.7v-3.2H259.4z"/>
	<path display="inline" fill="#FFFFFF" d="M302,119.2v6.8h-11v2.6h11v6.9h-11v2.6h11v6.8h-19.5v-25.8H302z"/>
	<path display="inline" fill="#FFFFFF" d="M320.7,126v-6.8h19.7v6.8h-5.6v19h-8.5v-19H320.7z"/>
	<path display="inline" fill="#FFFFFF" d="M342.6,141.8v-19.4h3v-3.2h17.8v3.2h3.1v19.4h-3.1v3.2h-17.8v-3.2H342.6z M350.7,138.3
		h7.5v-12.2h-7.5V138.3z"/>
	<path display="inline" fill="#FFFFFF" d="M395.8,138.2v-19h8.2V145h-19.3v-6.8H395.8z"/>
	<path display="inline" fill="#FFFFFF" d="M406.6,142.4v-22.6h8.2v18.9h4.5v-18.9h8.2v22.6h-3.2v3.2h-14.6v-3.2H406.6z"/>
	<path display="inline" fill="#FFFFFF" d="M438.2,119.2v3.2h3.3v2.9h1.2v-2.9h3.3v-3.2h8V145h-8V134h-1.4v2.8h-5.1V134h-1.2V145H430
		v-25.8H438.2z"/>
	<path display="inline" fill="#FFFFFF" d="M476.2,119.2v18.4h-11.3v7.4h-8.4v-25.8H476.2z M465,131.4h2.7v-6.1H465V131.4z"/>
</g>
<rect x="24.6" y="155" fill="#FFFFFF" width="451.6" height="5"/>
<g>
	<path fill="#FFFFFF" d="M30.6,0v28.5H13.1V40H0V0H30.6z M13.2,18.9h4.1V9.4h-4.1V18.9z"/>
	<path fill="#FFFFFF" d="M64.6,0v22.9h-3.5v1.9h3.5V40H51.5V25.5h-4.4V40H34V0H64.6z M47.2,14.5h4.1v-3.8h-4.1V14.5z"/>
	<path fill="#FFFFFF" d="M98.9,0v10.6h-17v4.1h17v10.7h-17v4.1h17V40H68.7V0H98.9z"/>
	<path fill="#FFFFFF" d="M121.3,29.4v-4.1h-18.6V0h31.5v10.6h-18.6v4.1h18.6V40h-31.5V29.4H121.3z"/>
	<path fill="#FFFFFF" d="M156.5,29.4v-4.1H138V0h31.5v10.6h-18.6v4.1h18.6V40H138V29.4H156.5z"/>
	<path fill="#FFFFFF" d="M203.5,0v10.6h-17v4.1h17v10.7h-17v4.1h17V40h-30.3V0H203.5z"/>
	<path fill="#FFFFFF" d="M211.5,22.2v-3.8h4.4v-3.8h9.9v-4.1h-18.6V0h31.5v17.8h-4.2v3.8h-4.4v3.8h-9.9v4.1h18.6V40h-31.5V22.2
		H211.5z"/>
	<path fill="#FFFFFF" d="M298.6,0v10.6h-17v4.1h17v10.7h-17v4.1h17V40h-30.3V0H298.6z"/>
	<path fill="#FFFFFF" d="M315.5,0v4.9h4.7v4.7h5.1v4.9h1.9V0h12.4v40h-12.4v-4.9h-5.1v-4.7H317v-4.9h-1.9V40h-12.8V0H315.5z"/>
	<path fill="#FFFFFF" d="M343.4,10.6V0h30.6v10.6h-8.7V40H352V10.6H343.4z"/>
	<path fill="#FFFFFF" d="M407.9,0v22.9h-3.5v1.9h3.5V40h-13.1V25.5h-4.4V40h-13.1V0H407.9z M390.6,14.5h4.1v-3.8h-4.1V14.5z"/>
	<path fill="#FFFFFF" d="M442.2,0v10.6h-17v4.1h17v10.7h-17v4.1h17V40H412V0H442.2z"/>
	<path fill="#FFFFFF" d="M476.3,0v10.6h-17v4.1h17v10.7h-17v4.1h17V40H446V0H476.3z"/>
</g>
<g>
	<path fill="#FFFFFF" d="M44,119.2v6.8h-11v2.6h11v6.9h-11v2.6h11v6.8H24.6v-25.7H44z"/>
	<path fill="#FFFFFF" d="M46.3,126v-6.8h19.7v6.8h-5.6v18.9h-8.5V126H46.3z"/>
	<path fill="#FFFFFF" d="M104,119.2v6.8H93v2.6h11v6.9H93v2.6h11v6.8H84.5v-25.7H104z"/>
	<path fill="#FFFFFF" d="M118.3,138.1v-2.6h-11.9v-16.3h20.2v6.8h-11.9v2.6h11.9v16.3h-20.2v-6.8H118.3z"/>
	<path fill="#FFFFFF" d="M148.7,119.2v18.3h-11.3v7.4h-8.4v-25.7H148.7z M137.6,131.4h2.7v-6.1h-2.7V131.4z"/>
	<path fill="#FFFFFF" d="M170.6,119.2v25.7h-8.4v-6.9h-2.9v6.9h-8.4v-25.7H170.6z M159.4,131.8h2.7v-6.5h-2.7V131.8z"/>
	<path fill="#FFFFFF" d="M173.2,141.8v-19.4h3.2v-3.1h17.7v6.8h-12.6v12.1h12.6v6.8h-17.7v-3.1H173.2z"/>
	<path fill="#FFFFFF" d="M215.8,119.2v6.8h-11v2.6h11v6.9h-11v2.6h11v6.8h-19.5v-25.7H215.8z"/>
	<path fill="#FFFFFF" d="M254.3,119.2v18.3H243v7.4h-8.4v-25.7H254.3z M243.1,131.4h2.7v-6.1h-2.7V131.4z"/>
	<path fill="#FFFFFF" d="M256.5,141.8v-19.4h3v-3.1h17.8v3.1h3.1v19.4h-3.1v3.1h-17.8v-3.1H256.5z M264.6,138.2h7.5v-12.1h-7.5
		V138.2z"/>
	<path fill="#FFFFFF" d="M282.8,142.4v-22.6h8.2v18.8h4.5v-18.8h8.2v22.6h-3.1v3.1H286v-3.1H282.8z"/>
	<path fill="#FFFFFF" d="M325.8,119.2v14.7h-2.2v1.2h2.2v9.8h-8.4v-9.3h-2.9v9.3h-8.4v-25.7H325.8z M314.6,128.5h2.7v-2.4h-2.7
		V128.5z"/>
	<path fill="#FFFFFF" d="M356.7,138.1v-2.6h-11.9v-16.3H365v6.8h-11.9v2.6H365v16.3h-20.2v-6.8H356.7z"/>
	<path fill="#FFFFFF" d="M387.1,119.2v25.7h-8.4v-6.9h-2.9v6.9h-8.4v-25.7H387.1z M375.9,131.8h2.7v-6.5h-2.7V131.8z"/>
	<path fill="#FFFFFF" d="M389.7,142.4v-22.6h8.2v18.8h4.5v-18.8h8.2v22.6h-3.1v3.1h-14.6v-3.1H389.7z"/>
	<path fill="#FFFFFF" d="M412.8,126v-6.8h19.7v6.8h-5.6v18.9h-8.5V126H412.8z"/>
	<path fill="#FFFFFF" d="M454.1,119.2v6.8h-11v2.6h11v6.9h-11v2.6h11v6.8h-19.5v-25.7H454.1z"/>
	<path fill="#FFFFFF" d="M476.2,119.2v14.7H474v1.2h2.2v9.8h-8.4v-9.3H465v9.3h-8.4v-25.7H476.2z M465.1,128.5h2.7v-2.4h-2.7V128.5z
		"/>
</g>
<g>
	<path fill="#FFFFFF" d="M167.5,60.3v27.9h-17.1v11.2h-12.8V60.3H167.5z M150.5,78.8h4v-9.2h-4V78.8z"/>
	<path fill="#FFFFFF" d="M170.9,94.6V65.1h4.5v-4.8h27.1v4.8h4.7v29.5h-4.7v4.8h-27.1v-4.8H170.9z M183.2,89.2h11.4V70.8h-11.4V89.2
		z"/>
	<path fill="#FFFFFF" d="M210.9,95.6V61.2h12.5v28.6h6.8V61.2h12.5v34.3h-4.8v4.8h-22.2v-4.8H210.9z"/>
	<path fill="#FFFFFF" d="M276.3,60.3v22.4h-3.4v1.8h3.4v14.9h-12.8V85.3h-4.3v14.2h-12.8V60.3H276.3z M259.3,74.5h4v-3.7h-4V74.5z"
		/>
	<path fill="#FFFFFF" d="M321.1,89.1V60.3h12.5v39.1h-29.2V89.1H321.1z"/>
	<path fill="#FFFFFF" d="M337.6,94.6V65.1h4.5v-4.8h27.1v4.8h4.7v29.5h-4.7v4.8h-27.1v-4.8H337.6z M349.9,89.2h11.4V70.8h-11.4V89.2
		z"/>
	<path fill="#FFFFFF" d="M377.6,95.6V61.2h12.5v28.6h6.8V61.2h12.5v34.3h-4.8v4.8h-22.2v-4.8H377.6z"/>
	<path fill="#FFFFFF" d="M442.6,60.3v10.3H426v4h16.7v10.5H426v4h16.7v10.3H413V60.3H442.6z"/>
	<path fill="#FFFFFF" d="M476.2,60.3v22.4h-3.4v1.8h3.4v14.9h-12.8V85.3h-4.3v14.2h-12.8V60.3H476.2z M459.2,74.5h4v-3.7h-4V74.5z"
		/>
</g>
</svg>
